<?xml version="1.0" encoding="utf-8"?>
<!-- Generator: Adobe Illustrator 28.0.0, SVG Export Plug-In . SVG Version: 6.00 Build 0)  -->
<svg version="1.1" id="Layer_1" xmlns="http://www.w3.org/2000/svg" xmlns:xlink="http://www.w3.org/1999/xlink" x="0px" y="0px"
	 viewBox="0 0 364 462" style="enable-background:new 0 0 364 462;" xml:space="preserve">
<style type="text/css">
	.st0{fill:#ED1C24;}
</style>
<path class="st0" d="M272.51,363.9c0,6.03-0.27,12.62,0.05,19.18c0.93,18.68-12.16,29.96-32.33,24.74
	c-18.43-4.77-36.77-9.86-55.18-14.7c-1.57-0.41-3.45-0.36-5.04,0.06c-18.28,4.81-36.49,9.89-54.82,14.51
	c-4.38,1.1-9.21,1.52-13.67,0.95c-11.24-1.43-18.46-10.16-18.65-21.72c-0.13-7.85-0.02-15.7-0.02-24.26
	c-8.68,5.83-18.06,4.31-27.18,4.4c-9.98,0.1-19.96,0.07-29.95,0.01c-14.78-0.09-26.55-11.88-26.77-26.6
	c-0.13-8.5-0.05-16.94,3.17-25.03c3.93-9.87,8.85-15.65,21.58-24.92c-5.68-7.44-8.06-15.79-6.24-25.12
	c1.42-7.28,5.15-13.17,10.93-17.75c11.11-8.79,27.44-8.43,37.95,0.79c12.23,10.73,13.59,25.3,4.14,41.7
	c5.41,4.85,10.75,9.63,15.75,14.12c2.81-5.88,5.96-12.32,8.91-18.85c0.33-0.72-0.18-2.13-0.74-2.9c-4-5.52-4.67-11.17-1.96-17.58
	c3.64-8.57-1.92-22.1-10.53-25.62c-6.65-2.72-10.28-7.49-10.71-14.39c-0.35-5.56-0.1-11.2,0.35-16.77c0.49-6,4.02-9.94,9.49-12.38
	c9.88-4.41,15.1-16.93,11.08-26.84c-2.45-6.04-1.84-11.62,2.27-16.44c3.78-4.44,7.92-8.63,12.32-12.45
	c4.79-4.17,10.41-4.77,16.45-2.47c9.86,3.75,22.36-1.59,26.4-11.37c2.85-6.9,8.32-9.88,15.17-10.27c6.19-0.36,12.46-0.14,18.63,0.5
	c5.85,0.61,9.94,4.08,12.32,9.63c4.29,10,16.49,15.22,26.68,11.44c5.76-2.14,11.24-1.72,15.82,2.24c4.68,4.05,9.08,8.52,13.09,13.25
	c3.92,4.63,4.29,10.07,2,15.81c-3.99,10.03,1.09,22.67,10.89,26.9c6.33,2.74,9.59,7.57,9.94,14.14c0.31,5.69,0.12,11.45-0.4,17.13
	c-0.52,5.67-3.95,9.44-9.13,11.81c-10.38,4.74-15.29,16.75-11.18,27.41c2.17,5.63,1.51,10.82-2.07,15.5
	c-1.57,2.05-1.33,3.45-0.23,5.61c2.92,5.74,5.45,11.69,7.9,17.06c5.04-4.53,10.35-9.3,15.94-14.32c-5.42-7.24-7.83-15.81-5.68-25.41
	c1.56-6.97,5.21-12.63,10.78-17.02c11.12-8.77,27.42-8.38,37.95,0.85c12.27,10.76,13.59,25.13,4.2,41.53
	c4.79,4.53,9.92,8.56,14.02,13.45c6.94,8.28,10.21,18.17,10.14,29.02c-0.03,4.59,0.13,9.3-0.78,13.75
	c-2.52,12.22-13.35,20.77-25.81,20.83c-14.22,0.07-28.46,0.27-42.67-0.13C282.27,366.8,277.51,364.99,272.51,363.9z M127.81,354.18
	c0.32,0.08,0.65,0.17,0.97,0.25c0-7.48-0.15-14.96,0.1-22.44c0.06-1.9,0.92-4.49,2.32-5.43c1.54-1.04,4.5-1.33,6.13-0.52
	c1.6,0.79,3.14,3.33,3.25,5.18c0.38,6.67,0.15,13.38,0.15,20.5c28.08-7.17,55.65-14.2,83.84-21.4c-0.22,0.47-0.05,0.17,0.07-0.15
	c1.35-3.64,3.76-5.36,6.9-4.9c3.22,0.47,4.69,2.72,5.13,6.74c0.16,1.45,1.13,3.15,2.27,4.1c7.46,6.17,10.86,14.07,9.32,23.51
	c-1.59,9.75-7.41,16.41-16.95,19.53c-2.6,0.85-5.26,1.49-7.9,2.22c-5.41,1.5-10.82,3-16.23,4.5c13.2,4.08,26.25,7.76,39.45,10.83
	c8.18,1.9,13.74-2.19,13.78-10.29c0.11-21.2,1.08-42.52-0.79-63.57c-2.74-30.86-20.19-51.99-48.56-64.1
	c-1.23-0.53-3.21-0.39-4.4,0.25c-15.99,8.52-31.9,8.53-47.89,0.04c-1.13-0.6-2.93-0.92-4.04-0.46
	c-27.96,11.6-45.55,32.29-48.79,62.33c-2.33,21.6-1.05,43.6-0.99,65.42c0.02,7.89,5.14,11.63,12.99,10.58
	c1.48-0.2,2.97-0.44,4.41-0.83c34.72-9.36,69.43-18.72,104.12-28.17c2.09-0.57,4.24-1.61,5.9-2.99c4.42-3.69,5.4-9.85,2.73-14.96
	c-2.86-5.5-8.66-7.7-15.74-5.88c-20.61,5.29-41.2,10.61-61.8,15.92c-8.79,2.27-17.58,4.57-26.39,6.77c-5.34,1.33-9.7-2.28-8.16-7.09
	C123.69,357.55,126.15,355.99,127.81,354.18z M252.52,273.05c-0.33-1.25-0.51-2.57-1.01-3.75c-2.14-5.11-2.8-10.35-1.37-15.72
	c2.65-9.93,6.1-19.68,16.25-24.24c4.97-2.23,6.17-5.47,6.12-10.07c-0.02-2.37-0.14-4.73-0.24-7.1c-0.12-3.03-1.43-4.98-4.5-6.01
	c-13.08-4.39-21.84-28.17-17.18-37.78c2.96-6.09,0.62-9.84-3.5-13.61c-1.84-1.68-3.52-3.64-5.62-4.89
	c-1.37-0.82-3.58-1.25-5.04-0.76c-16.54,5.52-34.32-2.08-41.89-17.91c-0.62-1.3-2.42-2.74-3.78-2.86
	c-4.81-0.41-9.67-0.26-14.51-0.36c-3.32-0.07-4.99,1.61-6.28,4.65c-5.38,12.68-24.67,21.93-37.59,17.32
	c-5.73-2.05-9.19-0.6-12.68,3.32c-1.66,1.86-3.35,3.69-5.03,5.53c-1.78,1.95-2.1,3.98-0.95,6.49c2.3,5.02,2.9,10.3,1.47,15.69
	c-2.66,10.08-6.19,19.9-16.49,24.49c-4.72,2.11-5.88,5.12-5.89,9.44c0,2.74,0.19,5.47,0.31,8.21c0.12,2.64,1.3,4.36,3.96,5.17
	c12.98,3.96,23.18,28.66,16.81,40.79c-0.62,1.18-0.71,2.63-1.05,3.95c9.73-10.18,20.56-18.35,33.21-24.12
	c-19.65-25.34-11.07-53.85,5.26-67.89c17.39-14.95,42.84-15.6,61.26-1.04c8.92,7.05,14.72,16.27,16.99,27.4
	c3.11,15.27-0.6,29.06-10.58,41.48C232.05,254.69,242.78,263,252.52,273.05z M182.72,253.3c19.66-0.04,36-16.46,35.9-36.08
	c-0.1-19.52-16.29-35.7-35.82-35.79c-19.64-0.09-36.04,16.23-36.07,35.9C146.7,236.97,163.07,253.34,182.72,253.3z M56.76,355.13
	c6.86,0,13.72,0.1,20.58-0.02c8.97-0.16,15.22-6.41,15.48-15.35c0.08-2.62,0.14-5.25-0.04-7.85c-1.05-14.63-7.9-25.47-21.34-31.73
	c-1.5-0.7-3.63-0.82-5.23-0.36c-5.4,1.55-10.95,2.4-16.19,0.47c-4.96-1.83-8.79-0.35-12.39,2.42c-3.32,2.56-6.6,5.36-9.25,8.59
	c-6.63,8.08-7.79,17.78-7.49,27.85c0.28,9.59,6.42,15.88,16.03,15.98C43.53,355.19,50.14,355.13,56.76,355.13z M308.27,355.12
	c6.98,0,13.97,0.13,20.95-0.03c8.59-0.2,14.77-6.35,15.16-14.9c0.13-2.86,0.18-5.75-0.04-8.6c-1.14-14.64-8.15-25.37-21.59-31.57
	c-1.39-0.64-3.39-0.66-4.89-0.22c-5.39,1.59-10.96,2.43-16.18,0.49c-5.12-1.91-9.03-0.26-12.72,2.55c-3.24,2.47-6.37,5.24-8.94,8.38
	c-6.62,8.08-7.82,17.76-7.53,27.84c0.28,9.61,6.39,15.94,15.96,16.06C295.05,355.19,301.66,355.13,308.27,355.12z M74.82,271.4
	c0.1-9.67-8.01-17.96-17.72-18.11c-9.66-0.15-17.98,7.91-18.2,17.62c-0.22,9.8,8.04,18.24,17.9,18.29
	C66.49,289.25,74.72,281.12,74.82,271.4z M326.45,271.26c0-9.68-8.16-17.89-17.86-17.97c-9.81-0.08-18.17,8.32-18.06,18.13
	c0.12,9.73,8.35,17.85,18.04,17.78C318.3,289.13,326.45,280.95,326.45,271.26z"/>
<path class="st0" d="M27.08,121.55c13.33,0.03,23.82,10.65,23.79,24.07c-0.03,13.29-10.72,23.84-24.1,23.8
	c-13.28-0.04-23.82-10.72-23.79-24.12C3.01,131.99,13.63,121.52,27.08,121.55z M38.91,145.6c0.09-6.33-5.37-11.94-11.76-12.09
	c-6.36-0.15-11.98,5.23-12.19,11.65c-0.21,6.47,5.43,12.26,11.94,12.28C33.25,157.46,38.81,151.98,38.91,145.6z"/>
<path class="st0" d="M314.47,145.59c-0.03-13.42,10.47-24.01,23.82-24.04c13.43-0.02,24.05,10.47,24.07,23.79
	c0.02,13.38-10.54,24.05-23.83,24.08C325.16,169.46,314.5,158.9,314.47,145.59z M338.54,157.44c6.36-0.09,11.87-5.67,11.85-12.01
	c-0.02-6.36-5.55-11.89-11.92-11.93c-6.52-0.03-12.19,5.7-12.03,12.18C326.59,152.08,332.21,157.53,338.54,157.44z"/>
<path class="st0" d="M158.73,73.48c0.02-13.31,10.65-23.82,24.08-23.8c13.34,0.03,23.84,10.64,23.81,24.06
	c-0.03,13.3-10.69,23.85-24.08,23.82C169.23,97.53,158.71,86.88,158.73,73.48z M182.54,61.65c-6.41,0.08-11.88,5.62-11.85,12
	c0.03,6.38,5.53,11.9,11.92,11.94c6.49,0.04,12.19-5.72,12.04-12.19C194.51,67.02,188.89,61.57,182.54,61.65z"/>
<path class="st0" d="M63.61,134.83c-1.53-1.7-3.57-3.27-4.66-5.34c-1.33-2.53-0.05-4.97,2.3-6.37c2.44-1.46,5.12-2.54,7.71-3.74
	c23.71-10.95,47.41-21.89,71.13-32.82c1.02-0.47,2.04-0.95,3.1-1.27c3.27-1,5.71,0.31,7.12,3.18c1.45,2.94,0.67,5.63-2.05,7.53
	c-1.21,0.84-2.63,1.4-3.99,2.02c-24.83,11.45-49.67,22.9-74.52,34.33C68.09,133.12,66.34,133.74,63.61,134.83z"/>
<path class="st0" d="M219.8,84.48c1.93,0.71,3.13,1.05,4.24,1.56c26.08,12.02,52.15,24.04,78.21,36.11
	c4.81,2.23,5.98,6.31,2.96,9.84c-2.35,2.75-5.08,2.5-8.1,1.09c-13.98-6.5-28-12.92-41.99-19.39c-12.08-5.58-24.16-11.14-36.23-16.76
	c-4.17-1.94-5.81-5.38-3.73-8.59C216.24,86.67,218.35,85.64,219.8,84.48z"/>
<path class="st0" d="M53.9,224.85c0.02,3.72-2.09,6.21-5.39,6.52c-3.31,0.31-5.54-1.37-6.41-4.49c-2.1-7.53-4.05-15.1-6.05-22.65
	c-1.43-5.4-2.85-10.8-4.23-16.21c-1.14-4.46,0.43-7.81,4-8.69c3.6-0.89,6.44,1.15,7.66,5.67c3.38,12.58,6.71,25.17,10.05,37.77
	C53.76,223.6,53.84,224.47,53.9,224.85z"/>
<path class="st0" d="M311.47,224.16c0.83-3.1,1.89-7.04,2.94-11c2.53-9.6,5.01-19.21,7.59-28.79c1.06-3.96,3.98-5.86,7.41-5.07
	c3.35,0.76,5.32,4.03,4.33,7.9c-3.4,13.22-6.9,26.41-10.47,39.58c-0.92,3.39-3.73,5.13-6.71,4.58
	C313.24,230.75,311.32,228.38,311.47,224.16z"/>
<path class="st0" d="M215.86,295.25c2.99,0,5.98-0.09,8.96,0.03c3.35,0.14,5.57,2.48,5.69,5.71c0.12,3.36-2.16,6.07-5.63,6.15
	c-6.22,0.14-12.45,0.15-18.67-0.01c-3.3-0.08-5.48-2.64-5.5-5.89c-0.02-3.38,2.28-5.76,5.81-5.99c0.12-0.01,0.25-0.01,0.37-0.01
	C209.89,295.24,212.88,295.24,215.86,295.25z"/>
</svg>
