<?xml version="1.0" encoding="utf-8"?>
<!-- Generator: Adobe Illustrator 28.0.0, SVG Export Plug-In . SVG Version: 6.00 Build 0)  -->
<svg version="1.1" id="Layer_1" xmlns="http://www.w3.org/2000/svg" xmlns:xlink="http://www.w3.org/1999/xlink" x="0px" y="0px"
	 viewBox="0 0 364 462" style="enable-background:new 0 0 364 462;" xml:space="preserve">
<style type="text/css">
	.st0{fill:#ED1C24;}
</style>
<path class="st0" d="M186,28c2.88,2.32,3.94,5.32,3.81,9c-0.18,5.03,0.02,10.07-0.07,15.1c-0.08,4.89-2.43,7.75-6.14,7.75
	c-3.71,0-6.05-2.87-6.14-7.75c-0.09-5.03,0.11-10.07-0.07-15.1c-0.13-3.68,0.93-6.68,3.81-9C182.8,28,184.4,28,186,28z"/>
<path class="st0" d="M221.98,341.44c0-7.6,0.06-14.9-0.01-22.2c-0.16-15.41,5.97-27.58,18.75-36.21
	c11.11-7.49,21.1-16.1,29.22-26.86c11.04-14.62,17.74-31.01,20.67-49.02c0.17-1.04,0.41-2.08,0.69-3.1c0.99-3.6,3.56-4.81,7-4.31
	c3.05,0.45,5.1,3.46,4.61,6.89c-3.33,23.29-12.29,44.09-27.53,62.13c-8.06,9.53-17.53,17.4-27.89,24.27
	c-9.19,6.09-13.41,14.78-13.44,25.66c-0.02,6.92,0.07,13.84-0.05,20.75c-0.04,2.11,0.53,3.35,2.47,4.41
	c5.02,2.75,7.88,7.11,7.99,12.89c0.11,5.92,1.1,12-2.31,17.52c-0.38,0.61-0.25,1.86,0.13,2.54c3.58,6.52,2.61,13.51,1.75,20.3
	c-0.79,6.22-6.61,11.32-12.97,11.67c-6.74,0.38-13.51,0.09-20.93,0.09c0,4.29,0.02,7.95,0,11.61c-0.08,11.07-5.35,16.29-16.45,16.3
	c-7.18,0.01-14.37,0.03-21.55-0.01c-9.03-0.05-14.68-5.46-15.02-14.5c-0.16-4.11-0.03-8.23-0.03-12.85
	c-1.64-0.1-3.03-0.23-4.42-0.26c-5.58-0.12-11.19,0.07-16.74-0.38c-6.58-0.53-12.36-6.16-12.89-12.7c-0.54-6.56-1.56-13.26,2-19.51
	c0.47-0.82-0.22-2.43-0.61-3.59c-2.6-7.81-3.05-15.63,0.44-23.23c0.94-2.06,2.78-4.25,4.76-5.16c3.37-1.55,3.71-3.85,3.62-6.99
	c-0.18-6.38-0.06-12.77-0.05-19.16c0-11.08-4.35-19.75-13.87-25.75c-14.26-8.99-26.2-20.46-35.49-34.52
	c-16.69-25.27-23.61-52.95-19.26-83.05c5.68-39.4,26.27-68.9,60.45-88.98c12.85-7.55,26.81-12.1,41.56-14.19
	c5.41-0.76,8.41,0.88,8.98,4.73c0.57,3.82-1.93,6.36-7.21,7.17c-25.03,3.88-46.42,14.8-63.71,33.35
	c-15.66,16.8-25.53,36.58-28.07,59.5c-4.95,44.65,11.36,79.88,48.44,105.13c13.73,9.35,20.68,21.6,20.26,38.18
	c-0.18,7.03-0.03,14.08-0.03,21.41C170.79,341.44,196.11,341.44,221.98,341.44z M183.6,369.32c13.17,0,26.35,0,39.52,0
	c9.31,0,9.31,0,9.29-9.09c-0.01-6.01-0.5-6.49-6.69-6.49c-27.28,0-54.56,0-81.83,0c-9.11,0-9.11,0-9.09,9.29
	c0.02,5.72,0.57,6.29,6.49,6.29C155.39,369.33,169.5,369.32,183.6,369.32z M183.2,396.98c13.31,0,26.61,0,39.92,0
	c9.33,0,9.33,0,9.29-9.41c-0.02-5.54-0.44-5.99-5.89-5.99c-27.41-0.01-54.82,0-82.23,0c-9.55,0-9.55,0-9.49,9.59
	c0.03,5.25,0.55,5.8,5.69,5.81C154.73,396.99,168.96,396.98,183.2,396.98z M169.17,409.42c0,4.29,0.03,8.14-0.01,11.98
	c-0.03,2.34,1.11,3.43,3.38,3.43c7.44,0,14.89,0.13,22.33-0.15c1.09-0.04,2.91-1.93,3.03-3.1c0.38-3.93,0.15-7.93,0.15-12.16
	C188.37,409.42,179,409.42,169.17,409.42z"/>
<path class="st0" d="M164.45,130.65c0-5.62-0.02-10.94,0.01-16.25c0.04-6.75,3.15-10.09,9.9-10.27c6.25-0.17,12.51-0.2,18.76,0.01
	c6.53,0.22,9.58,3.58,9.63,10.13c0.04,5.45,0.01,10.89,0.01,16.36c3.46,1.44,6.74,2.81,10.6,4.42c3.45-3.6,6.97-7.41,10.62-11.07
	c5.61-5.63,9.83-5.66,15.41-0.16c4.17,4.11,8.34,8.23,12.41,12.43c4.79,4.94,4.79,9.3,0.02,14.24c-3.14,3.25-6.3,6.5-9.62,9.57
	c-1.63,1.5-1.51,2.7-1.01,4.78c1.61,6.72,5.68,8.57,12.07,7.64c3.12-0.46,6.38-0.17,9.56,0.05c4.63,0.31,7.67,3.13,7.88,7.89
	c0.31,7.17,0.34,14.37,0.11,21.54c-0.18,5.62-3.57,8.66-9.25,8.82c-4.65,0.13-9.32,0.13-13.97-0.01c-2.27-0.07-3.18,0.8-4.43,2.79
	c-3.55,5.63-2.12,9.54,2.81,13.23c2.42,1.81,4.46,4.19,6.51,6.46c3.83,4.25,3.93,8.71,0.06,12.81c-4.66,4.93-9.46,9.73-14.4,14.39
	c-4.11,3.88-8.61,3.83-12.77-0.03c-3.61-3.34-7.06-6.86-10.45-10.44c-1.42-1.5-2.57-1.35-4.49-0.88c-6.55,1.6-8.87,5.42-7.75,11.97
	c0.48,2.84,0.15,5.84,0.06,8.77c-0.16,5.41-3.35,8.78-8.68,8.89c-6.92,0.14-13.84,0.14-20.76,0.01c-5.55-0.11-8.72-3.48-8.82-9.16
	c-0.08-4.79-0.14-9.58,0.03-14.37c0.08-2.26-1-2.94-2.79-4.04c-5.69-3.52-9.83-2.33-13.6,2.93c-1.76,2.45-4.17,4.47-6.46,6.5
	c-4.07,3.61-8.51,3.68-12.48-0.05c-4.94-4.64-9.74-9.45-14.4-14.38c-4.13-4.37-3.89-8.81,0.42-13.39c1.91-2.04,3.92-3.98,5.92-5.93
	c1.9-1.85,3.86-3.66,5.9-5.59c-1.25-3.14-2.24-6.15-3.67-8.93c-0.43-0.83-2.08-1.4-3.19-1.44c-4.65-0.16-9.31-0.01-13.97-0.08
	c-6.32-0.1-9.67-3.21-9.85-9.5c-0.19-6.51-0.19-13.04,0.01-19.56c0.19-6.2,3.33-9.17,9.51-9.31c4.66-0.1,9.32-0.14,13.97,0.02
	c2.19,0.07,3-0.83,4.12-2.68c3.37-5.59,2.65-9.81-2.77-13.6c-2.47-1.72-4.47-4.18-6.51-6.45c-3.73-4.15-3.9-8.45-0.14-12.48
	c4.72-5.05,9.62-9.96,14.67-14.68c4.26-3.98,8.63-3.68,13.1,0.49c2.04,1.9,4.01,3.9,5.93,5.92c1.92,2.02,3.76,4.12,5.55,6.1
	C157.62,133.47,160.91,132.11,164.45,130.65z M125.38,143.48c4.36,4.33,8.35,8.42,12.49,12.35c2.95,2.8,3.25,5.74,1.56,9.34
	c-2.02,4.3-3.82,8.72-5.48,13.18c-1.78,4.8-3.32,6.06-8.49,6.08c-5.55,0.02-11.09,0.01-16.66,0.01c0,4.98,0,9.52,0,14.29
	c5.79,0,11.23-0.03,16.67,0.01c5.37,0.03,6.68,1.1,8.47,6c1.54,4.22,3.22,8.41,5.1,12.49c2.31,5.02,2.19,6.62-1.78,10.59
	c-3.92,3.92-7.89,7.79-11.39,11.23c3.46,3.75,6.5,7.03,9.98,10.8c4.01-4.18,7.82-8.24,11.73-12.2c3.66-3.7,5.45-3.81,10.27-1.58
	c4.08,1.88,8.25,3.6,12.47,5.14c4.96,1.81,6.04,3.12,6.05,8.39c0.01,5.66,0,11.32,0,16.85c5.15,0,9.72,0,14.4,0
	c0-5.92,0.19-11.51-0.06-17.08c-0.2-4.5,1.89-6.76,5.95-8.15c4.37-1.49,8.69-3.26,12.83-5.29c3.88-1.9,6.98-1.67,10.01,1.57
	c3.88,4.15,7.99,8.1,11.81,11.93c3.57-3.43,6.79-6.54,10.41-10.03c-4.24-4.15-8.38-8.26-12.58-12.29c-2.79-2.68-3.11-5.6-1.48-9.03
	c1.82-3.82,3.65-7.67,5.05-11.65c2.57-7.3,2.9-7.68,10.81-7.69c4.99,0,9.98,0,14.92,0c0-5.12,0-9.57,0-14.29
	c-5.84,0-11.41-0.14-16.97,0.04c-4.43,0.14-6.81-1.92-8.22-5.98c-1.56-4.49-3.39-8.9-5.44-13.19c-1.81-3.77-1.44-6.79,1.66-9.65
	c4.19-3.88,8.24-7.91,12.27-11.81c-3.58-3.63-6.8-6.9-10.31-10.46c-4.03,4.11-8.07,8.15-12,12.29c-2.86,3.01-5.83,3.53-9.65,1.61
	c-4.24-2.13-8.68-3.94-13.18-5.47c-4.1-1.4-6.08-3.72-5.89-8.19c0.24-5.66,0.06-11.34,0.06-17.01c-5.04,0-9.52,0-14.4,0
	c0,5.89-0.16,11.58,0.05,17.25c0.16,4.31-1.8,6.54-5.74,7.88c-4.37,1.49-8.65,3.32-12.85,5.25c-5.02,2.31-6.56,2.19-10.55-1.81
	c-3.93-3.93-7.8-7.93-11.62-11.82C132.11,136.89,128.89,140.04,125.38,143.48z"/>
<path class="st0" d="M198.33,71.61c17.64,2.17,33.86,7.79,48.62,17.16c28.76,18.24,46.85,44.13,54.42,77.34
	c0.74,3.23,1.15,6.53,1.65,9.81c0.57,3.76-1.42,6.83-4.83,7.57c-3.07,0.67-6-1.36-6.94-5.04c-2.11-8.33-3.22-17.04-6.31-24.99
	c-14.78-37.99-42.4-61-82.48-68.88c-1.95-0.38-3.94-0.6-5.86-1.12c-3.63-0.99-5.64-3.89-4.85-7.07
	C192.61,72.87,195.1,71.47,198.33,71.61z"/>
<path class="st0" d="M36.29,197.45c-3.45,0-6.9,0.12-10.34-0.03c-3.6-0.15-5.73-2.32-5.83-5.81c-0.1-3.57,2.24-5.88,5.64-6.04
	c6.75-0.31,13.53-0.3,20.29-0.04c3.74,0.14,6,2.91,5.77,6.29c-0.25,3.66-2.5,5.45-5.98,5.63c-3.18,0.16-6.37,0.03-9.55,0.03
	C36.29,197.47,36.29,197.46,36.29,197.45z"/>
<path class="st0" d="M331.05,197.5c-3.18,0-6.38,0.15-9.55-0.04c-3.93-0.24-6.16-2.49-6.13-5.91c0.04-3.71,2.3-5.84,5.66-5.99
	c6.75-0.31,13.53-0.29,20.28-0.01c3.41,0.14,5.61,2.36,5.82,5.93c0.18,3.17-2.43,5.61-6.14,6c-0.39,0.04-0.79,0.07-1.19,0.07
	c-2.92,0.01-5.84,0-8.76,0C331.05,197.54,331.05,197.52,331.05,197.5z"/>
<path class="st0" d="M71.44,309.28c-1.25-0.98-3.47-1.92-4.24-3.55c-0.77-1.62-0.9-4.67,0.12-5.81
	c5.03-5.61,10.42-10.94,15.95-16.07c2.1-1.94,5.22-1.51,6.77,0.7c1.24,1.77,2.35,5.55,1.43,6.6c-5.3,6.04-11.2,11.56-16.96,17.19
	C74.01,308.83,73.02,308.82,71.44,309.28z"/>
<path class="st0" d="M300.96,302.43c-0.16,5.17-5.46,8.4-8.85,5.51c-5.73-4.89-10.98-10.38-16.07-15.94
	c-2.12-2.32-1.37-5.34,0.95-7.48c2.18-2.02,4.98-2.59,7.22-0.48c5.41,5.07,10.58,10.41,15.73,15.75
	C300.68,300.54,300.78,301.92,300.96,302.43z"/>
<path class="st0" d="M71.66,73.41c2.24,1.26,4.05,1.87,5.31,3.06c4.43,4.19,8.74,8.51,12.96,12.9c3.01,3.13,3.06,6.62,0.4,9.14
	c-2.41,2.29-6.04,2.13-8.89-0.63c-4.47-4.33-9.07-8.59-13.09-13.32c-1.35-1.58-1.88-4.7-1.37-6.77
	C67.38,76.11,69.9,74.95,71.66,73.41z"/>
<path class="st0" d="M301.81,79.97c-1.37,2.15-2.12,3.86-3.34,5.14c-4.12,4.32-8.35,8.53-12.63,12.68
	c-3.01,2.92-6.76,3.05-9.17,0.54c-2.41-2.51-2.34-5.89,0.51-8.85c4.41-4.58,8.78-9.25,13.62-13.35c1.55-1.31,4.75-1.68,6.79-1.08
	C299.26,75.53,300.32,78.1,301.81,79.97z"/>
<path class="st0" d="M215.62,191.33c0.1,17.61-14.07,32.06-31.64,32.26c-17.76,0.2-32.27-14.1-32.39-31.9
	c-0.11-17.76,14.29-32.25,32.03-32.22C201.22,159.49,215.52,173.72,215.62,191.33z M183.6,171.62c-11.09,0-20.03,8.95-20,20.01
	c0.04,10.73,9.01,19.79,19.8,19.98c10.77,0.19,20.16-9.1,20.2-19.98C203.63,180.57,194.69,171.62,183.6,171.62z"/>
</svg>
