<?xml version="1.0" encoding="UTF-8"?>
<svg id="Layer_1" data-name="Layer 1" xmlns="http://www.w3.org/2000/svg" xmlns:xlink="http://www.w3.org/1999/xlink" viewBox="0 0 335.53 68.3">
  <defs>
    <style>
      .cls-1 {
        fill: url(#linear-gradient);
      }

      .cls-1, .cls-2, .cls-3, .cls-4, .cls-5 {
        stroke-width: 0px;
      }

      .cls-2 {
        fill: #ed1c24;
      }

      .cls-6 {
        filter: url(#drop-shadow-1);
      }

      .cls-3 {
        fill: #fff;
      }

      .cls-4 {
        fill: url(#linear-gradient-2);
      }

      .cls-5 {
        fill: url(#linear-gradient-3);
      }
    </style>
    <filter id="drop-shadow-1" filterUnits="userSpaceOnUse">
      <feOffset dx="2.83" dy="2.83"/>
      <feGaussianBlur result="blur" stdDeviation="2.83"/>
      <feFlood flood-color="#231f20" flood-opacity="0"/>
      <feComposite in2="blur" operator="in"/>
      <feComposite in="SourceGraphic"/>
    </filter>
    <linearGradient id="linear-gradient" x1="0" y1="18.63" x2="37.31" y2="18.63" gradientUnits="userSpaceOnUse">
      <stop offset="0" stop-color="#000b29"/>
      <stop offset=".45" stop-color="#172d53"/>
      <stop offset=".76" stop-color="#1b3f68"/>
      <stop offset="1" stop-color="#1e4975"/>
    </linearGradient>
    <linearGradient id="linear-gradient-2" x1="39.63" y1="25.71" x2="62.74" y2="25.71" xlink:href="#linear-gradient"/>
    <linearGradient id="linear-gradient-3" x1="28.07" y1="50.77" x2="51.18" y2="50.77" xlink:href="#linear-gradient"/>
  </defs>
  <g class="cls-6">
    <path class="cls-2" d="m110.08,32.59l4.93,7.37-.67.47c-.48-.45-.88-.67-1.19-.67s-1.18.42-2.62,1.25c-2.97,1.71-5.48,2.87-7.51,3.47s-4.45.9-7.25.9c-5.59,0-10.17-1.32-13.75-3.96-2.11-1.54-3.77-3.44-4.98-5.72-1.4-2.61-2.1-5.48-2.1-8.62,0-4.28,1.25-8,3.76-11.16,3.77-4.75,9.47-7.12,17.09-7.12,2.8,0,5.2.29,7.21.88,2.01.59,4.51,1.74,7.52,3.47,1.43.81,2.31,1.22,2.62,1.22s.71-.22,1.19-.67l.67.47-4.93,7.38-.7-.46c.03-.27.05-.51.05-.7,0-.5-.22-.97-.65-1.41-.43-.44-1.2-.97-2.31-1.59-3.06-1.72-6.3-2.58-9.73-2.58-4.05,0-7.27,1.01-9.67,3.03-2.84,2.36-4.25,5.45-4.25,9.26s1.42,6.9,4.25,9.26c2.4,2.02,5.63,3.03,9.67,3.03,3.42,0,6.67-.86,9.73-2.59,1.11-.62,1.88-1.15,2.31-1.59.43-.44.65-.91.65-1.41,0-.19-.02-.41-.05-.67l.7-.49Z"/>
    <path class="cls-2" d="m138.78,8.76c6.18,0,11.07,1.67,14.69,5,3.82,3.49,5.74,7.99,5.74,13.52,0,3.38-.92,6.54-2.75,9.48-3.58,5.73-9.46,8.6-17.62,8.6-6.12,0-11-1.67-14.61-5-1.94-1.78-3.41-3.91-4.41-6.4-.88-2.19-1.32-4.5-1.32-6.91,0-3.54.91-6.78,2.72-9.71,3.48-5.61,9.33-8.47,17.57-8.57Zm.03,6.01c-3.38,0-6.19,1-8.44,3-2.67,2.36-4,5.46-4,9.29s1.33,6.92,4,9.29c2.25,2,5.08,3,8.49,3s6.23-1,8.46-3c1.33-1.19,2.35-2.65,3.06-4.37.62-1.53.93-3.12.93-4.76,0-4-1.33-7.15-4-9.44-2.27-1.97-5.11-2.97-8.52-3Z"/>
    <path class="cls-2" d="m188.05,35.72h-16.09l-2.38,4.97c-.33.69-.49,1.23-.49,1.63,0,.76.58,1.29,1.73,1.58v.83h-11.71v-.83c.69-.14,1.22-.38,1.58-.72s.78-1.02,1.25-2.02l13.02-27.16c.42-.86.62-1.55.62-2.07,0-.79-.5-1.36-1.5-1.71v-.83h12.55v.83c-1.02.29-1.53.8-1.53,1.53,0,.5.16,1.07.49,1.71l13.49,27.24c.57,1.16,1.07,1.95,1.5,2.37.43.42,1.01.7,1.74.84v.83h-13.03v-.83c1.14-.19,1.72-.72,1.72-1.61,0-.36-.17-.9-.52-1.61l-2.43-4.97Zm-2.22-4.84l-5.74-12.59-5.83,12.59h11.57Z"/>
    <path class="cls-2" d="m214.71,38.91h21.76c.54,0,.94-.12,1.22-.36.28-.24.5-.67.67-1.29h.83v9.14h-.83c-.17-.62-.4-1.05-.67-1.29-.28-.24-.68-.36-1.22-.36h-31.15v-.83c.62-.17,1.05-.4,1.3-.67s.36-.68.36-1.22V12.1c0-.53-.12-.94-.36-1.22-.24-.28-.67-.5-1.3-.67v-.83h11.05v.83c-.62.16-1.06.38-1.3.66-.24.28-.36.7-.36,1.23v26.8Z"/>
    <path class="cls-2" d="m255.73,34.46l9.39-20.75c.4-.88.6-1.56.6-2.05,0-.74-.57-1.23-1.71-1.45v-.83h12.12v.83c-.76.1-1.29.32-1.58.65-.29.33-.81,1.28-1.53,2.85l-12.28,26.44c-.52,1.12-.78,1.86-.78,2.2,0,.88.54,1.4,1.63,1.55v.83h-12.2v-.83c1.09-.16,1.63-.68,1.63-1.58,0-.33-.26-1.05-.78-2.18l-12.28-26.44c-.73-1.57-1.24-2.52-1.53-2.85s-.82-.54-1.58-.65v-.83h12.58v.83c-1.14.22-1.71.71-1.71,1.45,0,.48.2,1.17.6,2.05l9.4,20.75Z"/>
    <path class="cls-2" d="m280.8,42.01V12.08c0-.52-.12-.91-.36-1.19-.24-.28-.67-.5-1.3-.67v-.83h11.05v.83c-.62.16-1.06.38-1.3.66-.24.28-.36.69-.36,1.2v29.93c0,.53.13.94.38,1.23.25.28.68.5,1.28.66v.83h-11.05v-.83c.62-.17,1.05-.4,1.3-.67s.36-.68.36-1.22Z"/>
    <path class="cls-2" d="m298.2,42.01V12.1c0-.53-.12-.94-.36-1.22-.24-.28-.67-.5-1.3-.67v-.83h19.75c4.33,0,7.65.49,9.97,1.48,3.32,1.43,5.78,3.8,7.37,7.09,1.26,2.59,1.89,5.62,1.89,9.09,0,6.09-1.88,10.74-5.63,13.93-1.57,1.35-3.42,2.31-5.53,2.89-2.11.58-4.8.87-8.07.87h-19.75v-.83c.62-.17,1.05-.4,1.3-.67s.36-.68.36-1.22Zm7.73-3.11h9.71c3.1,0,5.43-.42,6.99-1.27,3.34-1.81,5.01-5.34,5.01-10.59,0-3.8-.9-6.71-2.7-8.73-1-1.12-2.22-1.92-3.64-2.39s-3.31-.71-5.66-.71h-9.71v23.69Z"/>
  </g>
  <rect class="cls-1" width="37.31" height="37.25" rx="3.4" ry="3.4"/>
  <rect class="cls-4" x="39.63" y="14.18" width="23.12" height="23.08" rx="2.86" ry="2.86"/>
  <rect class="cls-5" x="28.07" y="39.23" width="23.12" height="23.08" rx="2.52" ry="2.52"/>
  <g>
    <path class="cls-3" d="m99.23,68.02l4.93-11.43h3.24l.06,11.43h-2.72l.09-2.23h-2.11l-.79,2.23h-2.7Zm6.12-9.36h-.03l-1.88,5.12h1.56l.35-5.12Z"/>
    <path class="cls-3" d="m108.15,68.02l2.43-11.43h2.69l-1.94,9.15h3.28l-.49,2.29h-5.97Z"/>
    <path class="cls-3" d="m117.43,56.59h2.69l-1.83,8.63c-.12.55-.05,1.02.72,1.02.7,0,1.04-.61,1.15-1.1l1.82-8.55h2.69l-1.76,8.28c-.41,1.94-1.6,3.43-4.35,3.43-2.28,0-3.38-1.08-2.87-3.43l1.76-8.28Z"/>
    <path class="cls-3" d="m123.6,68.02l2.43-11.43h3.79l-.05,6.75h.03l2.87-6.75h3.76l-2.43,11.43h-2.57l2.18-8.97h-.03l-3.8,8.97h-2l.06-8.97h-.03l-1.66,8.97h-2.55Z"/>
    <path class="cls-3" d="m135.5,68.02l2.43-11.43h2.69l-2.43,11.43h-2.69Z"/>
    <path class="cls-3" d="m143.32,61.62l-.03.03-1.11,6.37h-2.55l2.43-11.43h2.76l.72,6.39h.05l1.1-6.39h2.55l-2.43,11.43h-2.75l-.73-6.4Z"/>
    <path class="cls-3" d="m148.24,68.02l2.43-11.43h2.69l-2.43,11.43h-2.69Z"/>
    <path class="cls-3" d="m160.38,64.38c-.55,2.58-1.74,3.92-4.46,3.92s-3.38-1.34-2.83-3.92l.99-4.65c.46-2.2,2.03-3.42,4.38-3.42s3.36,1.22,2.9,3.42l-.99,4.65Zm-1.74-4.47c.15-.7.27-1.54-.61-1.54s-1.15.84-1.3,1.54l-.99,4.7c-.15.66-.24,1.63.63,1.63s1.13-.98,1.28-1.63l.99-4.7Z"/>
    <path class="cls-3" d="m169.24,64.41l.49-2.29h3.79l-.49,2.29h-3.79Z"/>
    <path class="cls-3" d="m183.2,68.02l-.06-11.43h2.69l-.32,8.02h.03l3.07-8.02h2.69l-4.93,11.43h-3.16Z"/>
    <path class="cls-3" d="m189.81,68.02l2.43-11.43h2.69l-2.43,11.43h-2.69Z"/>
    <path class="cls-3" d="m193.98,68.02l2.43-11.43h2.92c.98,0,2.15.03,2.92.53.9.61.84,1.72.61,2.82l-1.08,5.08c-.26,1.14-.79,1.98-1.68,2.47-.79.46-1.66.53-2.49.53h-3.62Zm3.13-2.06c1.77.12,1.94-.61,2.21-2.13l.81-3.74c.26-1.34-.17-1.42-1.47-1.45l-1.56,7.32Z"/>
    <path class="cls-3" d="m205.09,68.02h-2.69l2.43-11.43h3.93c2.2,0,3.12.88,2.63,3.16-.26,1.22-.73,2.09-1.97,2.61v.03c.7.17,1.13.69,1.01,1.48-.12.91-.52,2.88-.52,3.61.03.15.08.29.17.4l-.03.15h-2.93c-.03-.21-.05-.43-.02-.66.17-1.01.43-1.95.5-2.65.08-.7-.05-1.16-.66-1.2h-.89l-.96,4.51Zm1.4-6.57h.92c.78,0,1.12-.72,1.25-1.42.29-1.36-.26-1.42-1.57-1.39l-.6,2.81Z"/>
    <path class="cls-3" d="m211.03,68.02l2.43-11.43h2.69l-2.43,11.43h-2.69Z"/>
    <path class="cls-3" d="m223.17,64.38c-.55,2.58-1.74,3.92-4.46,3.92s-3.38-1.34-2.83-3.92l.99-4.65c.46-2.2,2.03-3.42,4.38-3.42s3.36,1.22,2.9,3.42l-.99,4.65Zm-1.74-4.47c.15-.7.27-1.54-.61-1.54s-1.15.84-1.3,1.54l-.99,4.7c-.15.66-.24,1.63.63,1.63s1.13-.98,1.28-1.63l.99-4.7Z"/>
    <path class="cls-3" d="m232.04,64.41l.49-2.29h3.79l-.49,2.29h-3.79Z"/>
    <path class="cls-3" d="m243.96,68.02l2.43-11.43h2.69l-.93,4.39h1.86l.93-4.39h2.69l-2.43,11.43h-2.69l1.01-4.76h-1.86l-1.01,4.76h-2.69Z"/>
    <path class="cls-3" d="m252.6,68.02l2.43-11.43h2.69l-2.43,11.43h-2.69Z"/>
    <path class="cls-3" d="m256.77,68.02l2.43-11.43h6.15l-.47,2.29h-3.47l-.46,2.1h3.36l-.49,2.29h-3.36l-.52,2.47h3.65l-.49,2.29h-6.34Z"/>
    <path class="cls-3" d="m267.03,68.02h-2.69l2.43-11.43h3.93c2.2,0,3.12.88,2.63,3.16-.26,1.22-.73,2.09-1.97,2.61v.03c.7.17,1.13.69,1.01,1.48-.12.91-.52,2.88-.52,3.61.03.15.08.29.17.4l-.03.15h-2.93c-.03-.21-.05-.43-.02-.66.17-1.01.43-1.95.5-2.65.08-.7-.05-1.16-.66-1.2h-.89l-.96,4.51Zm1.4-6.57h.92c.78,0,1.12-.72,1.25-1.42.29-1.36-.26-1.42-1.57-1.39l-.6,2.81Z"/>
    <path class="cls-3" d="m275.52,68.02h-2.69l2.43-11.43h3.93c2.2,0,3.12.88,2.63,3.16-.26,1.22-.73,2.09-1.97,2.61v.03c.7.17,1.13.69,1.01,1.48-.12.91-.52,2.88-.52,3.61.03.15.08.29.17.4l-.03.15h-2.93c-.03-.21-.05-.43-.02-.66.17-1.01.43-1.95.5-2.65.08-.7-.05-1.16-.66-1.2h-.89l-.96,4.51Zm1.4-6.57h.92c.78,0,1.12-.72,1.25-1.42.29-1.36-.26-1.42-1.57-1.39l-.6,2.81Z"/>
    <path class="cls-3" d="m289.35,64.38c-.55,2.58-1.74,3.92-4.46,3.92s-3.38-1.34-2.83-3.92l.99-4.65c.46-2.2,2.03-3.42,4.38-3.42s3.36,1.22,2.9,3.42l-.99,4.65Zm-1.74-4.47c.15-.7.27-1.54-.61-1.54s-1.15.84-1.3,1.54l-.99,4.7c-.15.66-.24,1.63.63,1.63s1.13-.98,1.28-1.63l.99-4.7Z"/>
  </g>
</svg>